# xmcd CD database file
#
# Track frame offsets:
#	150
#	14612
#	28810
#	42342
#	55182
#	69727
#	83992
#	97642
#	111530
#	123387
#	135565
#	147960
#
# Disc length: 2176 seconds
#
# Revision: 4
# Processed by: cddbd v1.4PL0 Copyright (c) Steve Scherf et al.
# Submitted via: CD2WAV32(EN) R3.19
#
DISCID=a9087e0c
DTITLE=Don Williams - Greatest Hits
DYEAR=1900
DGENRE=Country
TTITLE0=Amanda
TTITLE1=Come Early Morning
TTITLE2=The Shelter Of Your Eyes
TTITLE3=Atta Way To Go
TTITLE4=She's In Love With A Rodeo Man
TTITLE5=Down The Road I Go
TTITLE6=I Wouldn't Want To Live If You Didn't Love Me
TTITLE7=We Should Be Together
TTITLE8=The Ties That Bind
TTITLE9=Ghost Story
TTITLE10=Don't You Believe
TTITLE11=I Recall A Gypsy Woman
EXTD=
EXTT0=
EXTT1=
EXTT2=
EXTT3=
EXTT4=
EXTT5=
EXTT6=
EXTT7=
EXTT8=
EXTT9=
EXTT10=
EXTT11=
PLAYORDER=
